PathFileType	4	(X/Y/Z)	/Users/niels/Desktop/University/Third Semester/Perception and Action/Exam/Gymnastics Motion Tracking/Code for Gym Tracking/Analyzed Data/Webcam_Backflip/id4_3_trajectory_Sports2D/id4_3_trajectory_Sports2D_px_person00.trc
DataRate	CameraRate	NumFrames	NumMarkers	Units	OrigDataRate	OrigDataStartFrame	OrigNumFrames
29.714285714285715	29.714285714285715	8	22	m	29.714285714285715	78	105
Frame#	Time	Hip			RHip			RKnee			RAnkle			RBigToe			RSmallToe			RHeel			LHip			LKnee			LAnkle			LBigToe			LSmallToe			LHeel			Neck			Head			Nose			RShoulder			RElbow			RWrist			LShoulder			LElbow			LWrist		
		X1	Y1	Z1	X2	Y2	Z2	X3	Y3	Z3	X4	Y4	Z4	X5	Y5	Z5	X6	Y6	Z6	X7	Y7	Z7	X8	Y8	Z8	X9	Y9	Z9	X10	Y10	Z10	X11	Y11	Z11	X12	Y12	Z12	X13	Y13	Z13	X14	Y14	Z14	X15	Y15	Z15	X16	Y16	Z16	X17	Y17	Z17	X18	Y18	Z18	X19	Y19	Z19	X20	Y20	Z20	X21	Y21	Z21	X22	Y22	Z22
78	2.625	0.7000468832856409	-0.5953409765899497	0.0	0.6830158673745126	-0.5857978627460945	0.0	0.698213707017827	-0.699345164147902	0.0	0.6452802201170101	-0.8091616004634251	0.0	0.6665160810302181	-0.8518374991756876	0.0	0.6512575843523706	-0.848519297657842	0.0	0.6315774372257691	-0.8238928984693932	0.0	0.7205434322936026	-0.6056722159943014	0.0	0.7066222958210653	-0.7116861808138281	0.0	0.651905268876757	-0.814058986051215	0.0	0.6784467409141933	-0.8537907693999642	0.0	0.6786086214429231	-0.8471549306143105	0.0	0.6389811871633289	-0.8300524834696574	0.0	0.8090372464032843	-0.534486674218057	0.0	0.8891890563618386	-0.5262358126295156	0.0	0.8522961201564172	-0.5528023231842064	0.0	0.7685744085725272	-0.513631968485707	0.0	0.6822043741813745	-0.5113894905542347	0.0	0.6041704151672658	-0.538870788314835	0.0	0.8114400383420397	-0.5471343949884011	0.0	0.7925819606460934	-0.5746022483226934	0.0	0.7907875131763304	-0.6227221115584218	0.0
79	2.658653846153846	0.7094712479195402	-0.5948355564749668	0.0	0.6926485891341999	-0.5856649337468643	0.0	0.7155123883069345	-0.6978225023387088	0.0	0.6694822312580863	-0.8053266386585397	0.0	0.694792432760765	-0.8462328859988719	0.0	0.6796082355361182	-0.8438655895170479	0.0	0.656394127051798	-0.8212218896429287	0.0	0.7289677144738325	-0.6041780608777402	0.0	0.7070071745737347	-0.709087026312805	0.0	0.6534174369794471	-0.8117016283857721	0.0	0.6797555418153405	-0.8530167740225054	0.0	0.6792966603589908	-0.845862153765216	0.0	0.6393637821505569	-0.8275181826831732	0.0	0.8145209676269938	-0.522632919612071	0.0	0.8924563020921987	-0.5065051870440398	0.0	0.8586589511195376	-0.5371421996846318	0.0	0.7728534421621264	-0.5030367523512119	0.0	0.685513204838864	-0.4977150584151615	0.0	0.6043209986796503	-0.5199639597440487	0.0	0.821250552144535	-0.537017202942704	0.0	0.8100215534611953	-0.5660156969712374	0.0	0.8152097034312136	-0.6116303995761869	0.0
80	2.692307692307692	0.7191247116089061	-0.5953677907020435	0.0	0.7024005227824829	-0.5868430050809395	0.0	0.7346675828289584	-0.6963648559473465	0.0	0.7005324591880493	-0.8021396609547404	0.0	0.7313680831259383	-0.8394491581911345	0.0	0.7166611030749506	-0.8388637801348304	0.0	0.6890850974520542	-0.8189289268267271	0.0	0.7373525704101639	-0.6033352049517167	0.0	0.7085236087261111	-0.7069096586171494	0.0	0.654572951146629	-0.8080864860643469	0.0	0.6808827102011475	-0.8511681362234853	0.0	0.6796879209152632	-0.8435861468973445	0.0	0.6394985120077428	-0.8229663933457121	0.0	0.8198761634382224	-0.5129361616832817	0.0	0.8947617893710413	-0.48940460777804684	0.0	0.864292241396018	-0.5239907962253109	0.0	0.77729328528521	-0.4949558093227851	0.0	0.6895709657163928	-0.4898203868792073	0.0	0.6071026700047423	-0.5093210545412548	0.0	0.8313993443873076	-0.5285786426574941	0.0	0.8282099317415529	-0.5606541311918939	0.0	0.8408129321115116	-0.6056953378485584	0.0
81	2.7259615384615383	0.7294467470434025	-0.5970086149704331	0.0	0.7127649742782309	-0.5894406712585512	0.0	0.7544858863596491	-0.6961337332611072	0.0	0.7359762002351886	-0.8011164347611116	0.0	0.7724821220033822	-0.8332402918316809	0.0	0.7587365520733266	-0.8350697449715065	0.0	0.7268594697765156	-0.8183621817073231	0.0	0.7460845369478073	-0.6033852236128897	0.0	0.7119898322760091	-0.7058768995497233	0.0	0.6555241142915351	-0.8037250064657087	0.0	0.6816804652849848	-0.8485971373129814	0.0	0.6797692763864999	-0.8406625802502063	0.0	0.6396840664127987	-0.8171583611324839	0.0	0.8252520030310105	-0.5054421958376114	0.0	0.8967361831731453	-0.4754654750341001	0.0	0.8695859357272665	-0.5134003669835366	0.0	0.7818815794754743	-0.4894250628268252	0.0	0.6942023002321862	-0.4872955608031528	0.0	0.6119217861414278	-0.5067022109640871	0.0	0.8415845355059229	-0.5216603185781343	0.0	0.8456440709057588	-0.557801794767253	0.0	0.865388871727652	-0.6039958608357417	0.0
82	2.7596153846153846	0.7407577593902308	-0.6000395390065567	0.0	0.7241821429388633	-0.5936353115060707	0.0	0.7740853268325336	-0.6980685930314842	0.0	0.7721988999649639	-0.8032202407692229	0.0	0.8131227599535021	-0.8295043673437084	0.0	0.8006584663423187	-0.8339946668665752	0.0	0.765357347091063	-0.8204838332368013	0.0	0.7556330781813431	-0.604760960583245	0.0	0.7181643194315407	-0.7065304261950293	0.0	0.6567841151312709	-0.7989684167808224	0.0	0.6821136554985816	-0.8455348132011523	0.0	0.6795984228700755	-0.8372294436700024	0.0	0.640463884500606	-0.8106644436626917	0.0	0.8307158777822115	-0.5002363837541055	0.0	0.8987326771845291	-0.464862317242902	0.0	0.8747685167724334	-0.5053130641200103	0.0	0.7865129221783367	-0.4865868606855765	0.0	0.6993435456232787	-0.48970727942818815	0.0	0.618584545452031	-0.5114753009483235	0.0	0.8514905949008695	-0.5163437416328094	0.0	0.8612309396402582	-0.5570429799846296	0.0	0.8871086092259388	-0.6055550671590346	0.0
83	2.793269230769231	0.7532247452469046	-0.6047607679604231	0.0	0.7368416249564457	-0.5994838068853836	0.0	0.7927890956523269	-0.7026536648011721	0.0	0.8053022924692129	-0.8086514013499266	0.0	0.8485692425198634	-0.8296932205463853	0.0	0.8373486060901582	-0.8366896411057207	0.0	0.7999610259705323	-0.8257113329319302	0.0	0.7664948094732784	-0.607872672738119	0.0	0.727440887601395	-0.7092218626005651	0.0	0.6590664470548486	-0.7941239296952602	0.0	0.6822429678037448	-0.842226764735218	0.0	0.6793748590467765	-0.8335146078039871	0.0	0.6425033129375306	-0.803855975885579	0.0	0.8362369349122909	-0.49740074080754276	0.0	0.9006902471683866	-0.4573007740044558	0.0	0.8798652352125031	-0.499538275799355	0.0	0.7910534085314932	-0.486614368678358	0.0	0.7051361545245721	-0.4966231419826386	0.0	0.6272356181009001	-0.5227225142606854	0.0	0.8608438735438142	-0.5128607957589852	0.0	0.8744079959860174	-0.5581606917696239	0.0	0.904817702800691	-0.6095171046099116	0.0
84	2.8269230769230766	0.7668407523862328	-0.611307746446605	0.0	0.7506247558099604	-0.6068975646357886	0.0	0.8099714866479936	-0.7099282162640413	0.0	0.8321039249531972	-0.817066992536557	0.0	0.8757519284237275	-0.8344572217303148	0.0	0.8653523352945015	-0.8434666470202876	0.0	0.8271409966793876	-0.834018837685791	0.0	0.7790525420204252	-0.6129610403966075	0.0	0.7399437194766909	-0.7140819840217643	0.0	0.663263232177194	-0.7895394233301782	0.0	0.6824854665502517	-0.8390806574514618	0.0	0.6797170776649849	-0.830035753420792	0.0	0.6465494405524906	-0.7970762842892245	0.0	0.8417029466397451	-0.49688098508556017	0.0	0.9022474252249066	-0.4521602707607689	0.0	0.8847006527207356	-0.4957811813589807	0.0	0.7954167051625572	-0.4895497224781918	0.0	0.7119120653789734	-0.5075001081885794	0.0	0.6381210244033164	-0.5393203342934857	0.0	0.8694519046546481	-0.5113533666363104	0.0	0.8850898304013214	-0.5608997650758986	0.0	0.9181971826679813	-0.6151592825932374	0.0
85	2.860576923076923	0.7813971315811291	-0.6194956888574935	0.0	0.7651693086752953	-0.615609311333398	0.0	0.8250247159602863	-0.7195160020517898	0.0	0.8510201996411599	-0.8278495168444142	0.0	0.8938868460609897	-0.8435029404229925	0.0	0.883616798903144	-0.8537968410156422	0.0	0.8454341616097294	-0.8450347808795512	0.0	0.7933705009192926	-0.6199450088483831	0.0	0.7556221816897674	-0.7209540603722783	0.0	0.6703556466939313	-0.7856513187709938	0.0	0.6839027811906019	-0.8366077166485203	0.0	0.6818009278744412	-0.827493586030236	0.0	0.6533734775220236	-0.7908151622734367	0.0	0.8469608031707058	-0.49839164880380377	0.0	0.9029768988755061	-0.4487824251914377	0.0	0.8889150246602314	-0.493684642948892	0.0	0.799611080350783	-0.4951416021183358	0.0	0.7199936353263464	-0.52153571619842	0.0	0.6513512617121799	-0.5599458554868985	0.0	0.8772377698608919	-0.5117286437918493	0.0	0.8935984315443605	-0.5648689164687773	0.0	0.9277523529652292	-0.6218193168867319	0.0
